<svg width="22" height="22" viewBox="0 0 22 22" fill="white" xmlns="http://www.w3.org/2000/svg">
<path d="M16.0416 5.95801H16.0508M6.41659 1.83301H15.5833C18.1146 1.83301 20.1666 3.88504 20.1666 6.41634V15.583C20.1666 18.1143 18.1146 20.1663 15.5833 20.1663H6.41659C3.88528 20.1663 1.83325 18.1143 1.83325 15.583V6.41634C1.83325 3.88504 3.88528 1.83301 6.41659 1.83301ZM14.6666 10.4222C14.7797 11.1851 14.6494 11.9642 14.2942 12.6488C13.939 13.3333 13.377 13.8885 12.6881 14.2352C11.9992 14.5819 11.2185 14.7026 10.4571 14.5801C9.69562 14.4576 8.9922 14.0981 8.44685 13.5527C7.90151 13.0074 7.54201 12.304 7.41948 11.5425C7.29695 10.7811 7.41764 10.0004 7.76438 9.31152C8.11112 8.62262 8.66626 8.0606 9.35082 7.7054C10.0354 7.35019 10.8145 7.21988 11.5774 7.33301C12.3556 7.4484 13.076 7.81102 13.6323 8.36729C14.1886 8.92356 14.5512 9.64399 14.6666 10.4222Z" stroke="#303540" stroke-linecap="round" stroke-linejoin="round"/>
</svg>
