<svg width="22" height="22" viewBox="0 0 22 22" fill="white" xmlns="http://www.w3.org/2000/svg">
<path d="M14.6666 7.33301C16.1253 7.33301 17.5242 7.91247 18.5557 8.94392C19.5871 9.97537 20.1666 11.3743 20.1666 12.833V19.2497H16.4999V12.833C16.4999 12.3468 16.3068 11.8805 15.9629 11.5366C15.6191 11.1928 15.1528 10.9997 14.6666 10.9997C14.1804 10.9997 13.714 11.1928 13.3702 11.5366C13.0264 11.8805 12.8333 12.3468 12.8333 12.833V19.2497H9.16658V12.833C9.16658 11.3743 9.74605 9.97537 10.7775 8.94392C11.8089 7.91247 13.2079 7.33301 14.6666 7.33301Z" stroke="#303540" stroke-linecap="round" stroke-linejoin="round"/>
<path d="M5.49992 8.24967H1.83325V19.2497H5.49992V8.24967Z" stroke="#303540" stroke-linecap="round" stroke-linejoin="round"/>
<path d="M3.66659 5.49967C4.67911 5.49967 5.49992 4.67886 5.49992 3.66634C5.49992 2.65382 4.67911 1.83301 3.66659 1.83301C2.65406 1.83301 1.83325 2.65382 1.83325 3.66634C1.83325 4.67886 2.65406 5.49967 3.66659 5.49967Z" stroke="#303540" stroke-linecap="round" stroke-linejoin="round"/>
</svg>
