<svg width="305" height="79" viewBox="0 0 305 79" fill="none" xmlns="http://www.w3.org/2000/svg">
<path d="M13.5596 15.9526C19.2863 15.9526 23.9288 20.5951 23.9288 26.3219V43.8698H13.5596V15.9526Z" fill="#13B974"/>
<path d="M0 38.2862C0 32.5595 4.64247 27.917 10.3692 27.917V43.8697H0V38.2862Z" fill="#13B974"/>
<path d="M41.2831 19.8302V26.7613H50.5907V31.1576H41.2831V38.4849H51.7789V43H35.7382V15.315H51.7789V19.8302H41.2831ZM67.6701 15.3546C70.5746 15.3546 73.1226 15.9223 75.3141 17.0577C77.5321 18.1931 79.2352 19.817 80.4234 21.9293C81.638 24.0153 82.2453 26.4445 82.2453 29.2169C82.2453 31.9894 81.638 34.4186 80.4234 36.5045C79.2352 38.5641 77.5321 40.1615 75.3141 41.2969C73.1226 42.4323 70.5746 43 67.6701 43H58.0061V15.3546H67.6701ZM67.472 38.2868C70.3765 38.2868 72.6209 37.4947 74.2052 35.9104C75.7894 34.3262 76.5816 32.095 76.5816 29.2169C76.5816 26.3388 75.7894 24.0945 74.2052 22.4838C72.6209 20.8467 70.3765 20.0282 67.472 20.0282H63.551V38.2868H67.472ZM106.833 23.672C106.199 22.5102 105.328 21.6257 104.219 21.0184C103.11 20.4111 101.816 20.1074 100.337 20.1074C98.7004 20.1074 97.2481 20.4771 95.9807 21.2164C94.7133 21.9557 93.7231 23.0119 93.0102 24.3849C92.2973 25.7579 91.9409 27.3422 91.9409 29.1377C91.9409 30.986 92.2973 32.5967 93.0102 33.9697C93.7496 35.3427 94.7661 36.3989 96.0599 37.1382C97.3538 37.8776 98.8588 38.2472 100.575 38.2472C102.687 38.2472 104.417 37.6927 105.764 36.5837C107.11 35.4483 107.995 33.8773 108.417 31.8706H98.9116V27.6327H113.883V32.4647C113.513 34.3922 112.721 36.1745 111.506 37.8115C110.292 39.4486 108.721 40.7688 106.793 41.7722C104.892 42.7492 102.753 43.2376 100.377 43.2376C97.7102 43.2376 95.2942 42.6435 93.1291 41.4553C90.9903 40.2407 89.3004 38.5641 88.0594 36.4253C86.8448 34.2866 86.2375 31.8574 86.2375 29.1377C86.2375 26.4181 86.8448 23.9889 88.0594 21.8501C89.3004 19.6849 90.9903 18.0083 93.1291 16.8201C95.2942 15.6055 97.697 14.9982 100.337 14.9982C103.453 14.9982 106.16 15.7639 108.457 17.2953C110.754 18.8004 112.338 20.9259 113.21 23.672H106.833ZM124.718 15.3546V43H119.173V15.3546H124.718ZM155.03 43H149.485L136.93 24.0285V43H131.385V15.315H136.93L149.485 34.3262V15.315H155.03V43ZM180.947 23.672C180.313 22.5102 179.442 21.6257 178.333 21.0184C177.224 20.4111 175.93 20.1074 174.451 20.1074C172.814 20.1074 171.362 20.4771 170.094 21.2164C168.827 21.9557 167.837 23.0119 167.124 24.3849C166.411 25.7579 166.055 27.3422 166.055 29.1377C166.055 30.986 166.411 32.5967 167.124 33.9697C167.863 35.3427 168.88 36.3989 170.174 37.1382C171.468 37.8776 172.973 38.2472 174.689 38.2472C176.801 38.2472 178.531 37.6927 179.877 36.5837C181.224 35.4483 182.108 33.8773 182.531 31.8706H173.025V27.6327H187.997V32.4647C187.627 34.3922 186.835 36.1745 185.62 37.8115C184.406 39.4486 182.835 40.7688 180.907 41.7722C179.006 42.7492 176.867 43.2376 174.491 43.2376C171.824 43.2376 169.408 42.6435 167.243 41.4553C165.104 40.2407 163.414 38.5641 162.173 36.4253C160.959 34.2866 160.351 31.8574 160.351 29.1377C160.351 26.4181 160.959 23.9889 162.173 21.8501C163.414 19.6849 165.104 18.0083 167.243 16.8201C169.408 15.6055 171.811 14.9982 174.451 14.9982C177.567 14.9982 180.273 15.7639 182.571 17.2953C184.868 18.8004 186.452 20.9259 187.323 23.672H180.947ZM212.1 15.3546V19.8302H204.734V43H199.189V19.8302H191.822V15.3546H212.1ZM230.167 43.2772C227.579 43.2772 225.203 42.6699 223.038 41.4553C220.872 40.2407 219.156 38.5641 217.889 36.4253C216.621 34.2602 215.988 31.8177 215.988 29.0981C215.988 26.4049 216.621 23.9889 217.889 21.8501C219.156 19.6849 220.872 17.9951 223.038 16.7805C225.203 15.5659 227.579 14.9586 230.167 14.9586C232.781 14.9586 235.157 15.5659 237.296 16.7805C239.461 17.9951 241.164 19.6849 242.405 21.8501C243.673 23.9889 244.306 26.4049 244.306 29.0981C244.306 31.8177 243.673 34.2602 242.405 36.4253C241.164 38.5641 239.461 40.2407 237.296 41.4553C235.131 42.6699 232.754 43.2772 230.167 43.2772ZM230.167 38.3264C231.83 38.3264 233.296 37.9568 234.563 37.2174C235.831 36.4517 236.821 35.3691 237.534 33.9697C238.247 32.5703 238.603 30.9464 238.603 29.0981C238.603 27.2498 238.247 25.6391 237.534 24.2661C236.821 22.8667 235.831 21.7973 234.563 21.058C233.296 20.3186 231.83 19.949 230.167 19.949C228.503 19.949 227.025 20.3186 225.731 21.058C224.463 21.7973 223.473 22.8667 222.76 24.2661C222.047 25.6391 221.691 27.2498 221.691 29.0981C221.691 30.9464 222.047 32.5703 222.76 33.9697C223.473 35.3691 224.463 36.4517 225.731 37.2174C227.025 37.9568 228.503 38.3264 230.167 38.3264ZM273.265 43H267.72L255.165 24.0285V43H249.62V15.315H255.165L267.72 34.3262V15.315H273.265V43ZM289.478 43.2772C287.55 43.2772 285.808 42.9472 284.25 42.2871C282.718 41.627 281.504 40.6764 280.606 39.4354C279.708 38.1944 279.246 36.729 279.22 35.0391H285.161C285.24 36.1745 285.636 37.0722 286.349 37.7323C287.088 38.3924 288.092 38.7225 289.359 38.7225C290.653 38.7225 291.67 38.4188 292.409 37.8115C293.148 37.1778 293.518 36.3593 293.518 35.3559C293.518 34.5374 293.267 33.8641 292.765 33.336C292.264 32.8079 291.63 32.3986 290.864 32.1082C290.125 31.7913 289.095 31.4481 287.775 31.0784C285.979 30.5503 284.514 30.0355 283.379 29.5338C282.27 29.0057 281.306 28.2268 280.487 27.197C279.695 26.1408 279.299 24.7414 279.299 22.9987C279.299 21.3616 279.708 19.9358 280.527 18.7212C281.345 17.5066 282.494 16.5824 283.973 15.9487C285.451 15.2886 287.141 14.9586 289.042 14.9586C291.894 14.9586 294.204 15.6583 295.973 17.0577C297.769 18.4307 298.759 20.3583 298.944 22.8403H292.844C292.792 21.8897 292.382 21.1108 291.617 20.5035C290.877 19.8698 289.887 19.5529 288.646 19.5529C287.564 19.5529 286.692 19.8302 286.032 20.3847C285.398 20.9391 285.082 21.7445 285.082 22.8007C285.082 23.54 285.319 24.1605 285.795 24.6622C286.296 25.1374 286.904 25.5335 287.616 25.8504C288.356 26.1408 289.386 26.4841 290.706 26.8801C292.501 27.4082 293.967 27.9363 295.102 28.4644C296.237 28.9925 297.214 29.7846 298.033 30.8408C298.851 31.897 299.261 33.2832 299.261 34.9995C299.261 36.4781 298.878 37.8511 298.112 39.1186C297.346 40.386 296.224 41.4025 294.746 42.1683C293.267 42.9076 291.511 43.2772 289.478 43.2772Z" fill="#303540"/>
<path d="M177.908 66.6462H171.085L169.777 70.2075H168.189L173.66 55.4046H175.355L180.804 70.2075H179.216L177.908 66.6462ZM177.457 65.4019L174.497 57.2925L171.536 65.4019H177.457ZM192.482 70.2075L188.771 63.9431H186.003V70.2075H184.501V55.2115H189.007C190.68 55.2115 191.946 55.612 192.804 56.4129C193.676 57.2138 194.112 58.265 194.112 59.5666C194.112 60.6535 193.798 61.5832 193.169 62.3555C192.554 63.1135 191.638 63.607 190.422 63.8358L194.284 70.2075H192.482ZM186.003 62.7202H189.028C190.201 62.7202 191.08 62.4342 191.667 61.8621C192.267 61.29 192.568 60.5248 192.568 59.5666C192.568 58.5797 192.282 57.8217 191.71 57.2925C191.138 56.749 190.237 56.4772 189.007 56.4772H186.003V62.7202ZM197.693 62.6988C197.693 61.2256 198.015 59.9098 198.659 58.7513C199.302 57.5785 200.182 56.6703 201.298 56.0267C202.413 55.3688 203.657 55.0399 205.03 55.0399C206.704 55.0399 208.134 55.4403 209.321 56.2413C210.523 57.0279 211.395 58.1435 211.939 59.588H210.179C209.75 58.5725 209.092 57.7788 208.206 57.2067C207.333 56.6346 206.275 56.3485 205.03 56.3485C203.929 56.3485 202.935 56.606 202.048 57.1209C201.176 57.6357 200.489 58.3795 199.989 59.352C199.488 60.3103 199.238 61.4259 199.238 62.6988C199.238 63.9717 199.488 65.0873 199.989 66.0455C200.489 67.0038 201.176 67.7404 202.048 68.2552C202.935 68.7701 203.929 69.0276 205.03 69.0276C206.275 69.0276 207.333 68.7487 208.206 68.1909C209.092 67.6188 209.75 66.8322 210.179 65.831H211.939C211.395 67.2612 210.523 68.3697 209.321 69.1563C208.12 69.9429 206.69 70.3362 205.03 70.3362C203.657 70.3362 202.413 70.0144 201.298 69.3708C200.182 68.7129 199.302 67.8047 198.659 66.6462C198.015 65.4877 197.693 64.1719 197.693 62.6988ZM227.353 55.2115V70.2075H225.851V63.1922H217.72V70.2075H216.218V55.2115H217.72V61.9479H225.851V55.2115H227.353ZM233.568 55.2115V70.2075H232.066V55.2115H233.568ZM247.03 55.2115V56.4558H242.868V70.2075H241.367V56.4558H237.183V55.2115H247.03ZM252.191 56.4343V62.0337H257.876V63.278H252.191V68.9632H258.519V70.2075H250.689V55.19H258.519V56.4343H252.191ZM262.079 62.6988C262.079 61.2256 262.401 59.9098 263.045 58.7513C263.688 57.5785 264.568 56.6703 265.683 56.0267C266.799 55.3688 268.043 55.0399 269.416 55.0399C271.09 55.0399 272.52 55.4403 273.707 56.2413C274.908 57.0279 275.781 58.1435 276.324 59.588H274.565C274.136 58.5725 273.478 57.7788 272.591 57.2067C271.719 56.6346 270.661 56.3485 269.416 56.3485C268.315 56.3485 267.321 56.606 266.434 57.1209C265.562 57.6357 264.875 58.3795 264.375 59.352C263.874 60.3103 263.624 61.4259 263.624 62.6988C263.624 63.9717 263.874 65.0873 264.375 66.0455C264.875 67.0038 265.562 67.7404 266.434 68.2552C267.321 68.7701 268.315 69.0276 269.416 69.0276C270.661 69.0276 271.719 68.7487 272.591 68.1909C273.478 67.6188 274.136 66.8322 274.565 65.831H276.324C275.781 67.2612 274.908 68.3697 273.707 69.1563C272.506 69.9429 271.075 70.3362 269.416 70.3362C268.043 70.3362 266.799 70.0144 265.683 69.3708C264.568 68.7129 263.688 67.8047 263.045 66.6462C262.401 65.4877 262.079 64.1719 262.079 62.6988ZM289.378 55.2115V56.4558H285.216V70.2075H283.715V56.4558H279.531V55.2115H289.378ZM297.585 70.3577C296.598 70.3577 295.726 70.1861 294.968 69.8428C294.224 69.4996 293.638 69.0204 293.209 68.4054C292.78 67.7904 292.551 67.1039 292.522 66.3459H294.11C294.181 67.0753 294.503 67.7189 295.075 68.2767C295.647 68.8202 296.484 69.0919 297.585 69.0919C298.601 69.0919 299.402 68.8345 299.988 68.3196C300.589 67.7904 300.889 67.1254 300.889 66.3244C300.889 65.6808 300.724 65.1659 300.396 64.7798C300.067 64.3793 299.659 64.0861 299.173 63.9002C298.686 63.6999 298.014 63.4854 297.156 63.2566C296.155 62.9848 295.361 62.7202 294.775 62.4628C294.188 62.2053 293.688 61.8049 293.273 61.2614C292.858 60.7179 292.651 59.9813 292.651 59.0517C292.651 58.2793 292.851 57.5928 293.252 56.9921C293.652 56.3771 294.217 55.898 294.946 55.5547C295.676 55.2115 296.512 55.0399 297.456 55.0399C298.844 55.0399 299.959 55.3831 300.803 56.0696C301.661 56.7418 302.155 57.6143 302.283 58.687H300.653C300.553 58.072 300.217 57.5285 299.645 57.0565C299.073 56.5702 298.3 56.3271 297.328 56.3271C296.427 56.3271 295.676 56.5702 295.075 57.0565C294.474 57.5285 294.174 58.1792 294.174 59.0088C294.174 59.6381 294.338 60.1458 294.667 60.532C294.996 60.9181 295.404 61.2113 295.89 61.4116C296.391 61.6118 297.063 61.8263 297.907 62.0552C298.879 62.3269 299.666 62.5987 300.267 62.8704C300.868 63.1278 301.375 63.5283 301.79 64.0718C302.205 64.6153 302.412 65.3447 302.412 66.2601C302.412 66.9609 302.226 67.6259 301.854 68.2552C301.483 68.8846 300.932 69.3923 300.202 69.7784C299.473 70.1646 298.601 70.3577 297.585 70.3577Z" fill="#303540"/>
</svg>
